<svg version="1.1" id="Capa_1" xmlns="http://www.w3.org/2000/svg" xmlns:xlink="http://www.w3.org/1999/xlink" x="0px" y="0px" viewBox="0 0 512 512" style="enable-background:new 0 0 512 512;" xml:space="preserve"><path style="fill: rgb(244, 238, 235);" d="M495.578,157.752c0-44.1-30.27-79.849-67.61-79.849c-16.329,0-31.306,6.837-42.991,18.22 c0.267-2.882,0.414-5.807,0.414-8.773c0-44.1-30.27-79.849-67.61-79.849c-27.561,0-51.253,19.487-61.781,47.422 C245.472,26.987,221.78,7.5,194.219,7.5c-37.34,0-67.61,35.75-67.61,79.849c0,2.966,0.148,5.891,0.414,8.773 c-11.685-11.382-26.662-18.22-42.991-18.22c-37.34,0-67.61,35.75-67.61,79.849C15.288,380.737,23.236,504.5,23.236,504.5h465.529 C488.765,504.5,496.713,380.737,495.578,157.752z" fill="#886A5E"></path><path style="fill: rgb(145, 235, 253);" d="M46.423,157.752c0-38.023,22.511-69.817,52.647-77.862c-4.836-1.298-9.868-1.987-15.037-1.987 c-37.34,0-67.61,35.75-67.61,79.849C15.288,380.737,23.236,504.5,23.236,504.5h30C53.236,504.5,45.288,380.737,46.423,157.752z" fill="#7A6154"></path><g><ellipse style="" cx="194.22" cy="100.34" rx="34.09" ry="45.4" fill="#FABED5"></ellipse><ellipse style="" cx="83.19" cy="167.29" rx="34.09" ry="45.4" fill="#FABED5"></ellipse><ellipse style="" cx="317.78" cy="100.34" rx="34.09" ry="45.4" fill="#FABED5"></ellipse><ellipse style="" cx="428.81" cy="167.29" rx="34.09" ry="45.4" fill="#FABED5"></ellipse><path style="" d="M360.441,245.06c-49.605,0-47.131-48.652-104.441-48.652s-54.836,48.652-104.44,48.652 c-38.628,0-81.923,64.319-46.67,122.866s92.151,18.141,151.11,18.141s115.857,40.406,151.11-18.141 C442.364,309.379,399.07,245.06,360.441,245.06z" fill="#FABED5"></path></g><path d="M23.235,512h465.529c3.956,0,7.231-3.072,7.485-7.02c0.054-0.844,5.436-86.219,6.68-239.332 c0.033-4.142-3.297-7.527-7.439-7.561c-4.138-0.037-7.526,3.297-7.561,7.439c-1.038,127.812-4.962,208.208-6.242,231.474H30.314 c-1.605-29.202-7.363-148.4-6.392-339.248c0-39.894,26.965-72.35,60.11-72.35c13.894,0,26.95,5.564,37.757,16.092 c2.25,2.192,5.628,2.749,8.464,1.396c2.835-1.354,4.526-4.331,4.237-7.459c-0.254-2.745-0.383-5.464-0.383-8.082 c0-39.894,26.965-72.349,60.11-72.349c23.522,0,45.018,16.708,54.764,42.567c1.101,2.921,3.896,4.855,7.018,4.855 s5.917-1.934,7.018-4.855C272.763,31.708,294.259,15,317.781,15c33.145,0,60.109,32.456,60.109,72.349 c0,2.621-0.129,5.34-0.382,8.082c-0.29,3.128,1.401,6.106,4.237,7.459c2.835,1.353,6.213,0.796,8.464-1.396 c10.807-10.528,23.863-16.092,37.757-16.092c33.145,0,60.11,32.456,60.11,72.388c0.135,26.555,0.146,53.104,0.033,78.91 c-0.018,4.142,3.325,7.515,7.467,7.533c0.011,0,0.022,0,0.033,0c4.127,0,7.481-3.336,7.5-7.467 c0.114-25.853,0.103-52.45-0.033-79.014c0-48.165-33.694-87.35-75.11-87.35c-12.376,0-24.507,3.563-35.297,10.226 C389.711,35.591,357.253,0,317.781,0C292.828,0,269.85,14.361,256,37.65C242.148,14.361,219.171,0,194.218,0 c-39.472,0-71.93,35.591-74.89,80.628c-10.79-6.663-22.92-10.226-35.296-10.226c-41.416,0-75.11,39.185-75.11,87.312 C7.799,378.406,15.671,503.74,15.751,504.98C16.004,508.928,19.28,512,23.235,512z" fill="#000000"></path><path d="M235.81,100.339c0-29.168-18.658-52.897-41.591-52.897s-41.592,23.729-41.592,52.897c0,29.167,18.658,52.897,41.592,52.897 S235.81,129.507,235.81,100.339z M167.627,100.339c0-20.896,11.929-37.897,26.592-37.897c14.662,0,26.591,17.001,26.591,37.897 s-11.929,37.897-26.591,37.897C179.555,138.237,167.627,121.236,167.627,100.339z" fill="#000000"></path><path d="M124.786,167.295c0-29.168-18.658-52.897-41.592-52.897s-41.591,23.729-41.591,52.897c0,29.167,18.658,52.897,41.591,52.897 S124.786,196.463,124.786,167.295z M83.194,205.192c-14.662,0-26.591-17-26.591-37.897s11.929-37.897,26.591-37.897 c14.663,0,26.592,17,26.592,37.897C109.786,188.192,97.857,205.192,83.194,205.192z" fill="#000000"></path><path d="M359.372,100.339c0-29.168-18.658-52.897-41.591-52.897s-41.592,23.729-41.592,52.897c0,29.167,18.658,52.897,41.592,52.897 S359.372,129.507,359.372,100.339z M291.189,100.339c0-20.896,11.929-37.897,26.592-37.897c14.662,0,26.591,17.001,26.591,37.897 s-11.929,37.897-26.591,37.897C303.118,138.237,291.189,121.236,291.189,100.339z" fill="#000000"></path><path d="M470.396,167.295c0-29.168-18.658-52.897-41.592-52.897s-41.591,23.729-41.591,52.897c0,29.167,18.657,52.897,41.591,52.897 S470.396,196.463,470.396,167.295z M402.214,167.295c0-20.897,11.929-37.897,26.591-37.897c14.663,0,26.592,17,26.592,37.897 c0,20.896-11.929,37.897-26.592,37.897C414.142,205.192,402.214,188.192,402.214,167.295z" fill="#000000"></path><path d="M309.833,385.939c-17.334-3.625-35.257-7.373-53.833-7.373c-18.579,0-36.504,3.748-53.84,7.373 c-3.665,0.766-7.295,1.525-10.886,2.238c-4.063,0.806-6.704,4.752-5.897,8.815c0.806,4.063,4.753,6.704,8.815,5.897 c3.641-0.722,7.322-1.491,11.038-2.269c16.589-3.468,33.742-7.055,50.77-7.055c17.024,0,34.176,3.586,50.763,7.055 c15.363,3.213,30.927,6.469,45.827,6.468c22.968-0.001,44.354-7.739,60.945-35.295c18.119-30.092,18.788-66.014,1.789-96.093 c-13.095-23.17-34.639-38.142-54.884-38.142c-20.897,0-31.033-9.699-42.769-20.929c-13.581-12.995-28.973-27.723-61.672-27.723 s-48.092,14.729-61.672,27.723c-11.736,11.23-21.872,20.929-42.769,20.929c-20.246,0-41.789,14.972-54.883,38.143 c-16.999,30.078-16.331,66,1.789,96.092c14.477,24.043,33.946,35.349,61.05,35.349c1.307,0,2.635-0.026,3.978-0.079 c4.139-0.162,7.363-3.648,7.201-7.787c-0.162-4.139-3.657-7.363-7.787-7.201c-23.775,0.929-39.208-7.45-51.593-28.019 c-15.292-25.396-15.883-55.667-1.58-80.975c10.479-18.542,26.896-30.522,41.825-30.522c26.917,0,40.848-13.33,53.139-25.091 c12.662-12.117,24.623-23.561,51.302-23.561s38.639,11.444,51.301,23.561c12.291,11.761,26.222,25.091,53.139,25.091 c14.929,0,31.346,11.981,41.825,30.522c14.302,25.307,13.712,55.579-1.58,80.975C378.822,400.366,348.377,394,309.833,385.939z" fill="#000000"></path></svg>